<?xml version="1.0" encoding="UTF-8"?>
<svg version="1.1" xmlns="http://www.w3.org/2000/svg" width="768" height="246">
<path d="M0 0 C0.50144531 0.46535156 1.00289062 0.93070313 1.51953125 1.41015625 C1.51953125 2.07015625 1.51953125 2.73015625 1.51953125 3.41015625 C3.16953125 4.07015625 4.81953125 4.73015625 6.51953125 5.41015625 C6.51953125 6.07015625 6.51953125 6.73015625 6.51953125 7.41015625 C7.40511719 7.79300781 7.40511719 7.79300781 8.30859375 8.18359375 C14.47652427 11.60537853 21.79208124 20.81542694 24.28173828 27.4375 C25.37202678 29.61044561 25.37202678 29.61044561 27.77172852 30.28808594 C28.70041748 30.46758789 29.62910645 30.64708984 30.5859375 30.83203125 C31.62137695 31.04875488 32.65681641 31.26547852 33.72363281 31.48876953 C35.38604004 31.82110596 35.38604004 31.82110596 37.08203125 32.16015625 C45.18824261 33.93302717 52.78338307 35.91094348 60.26953125 39.53515625 C60.94056885 39.85967773 61.61160645 40.18419922 62.30297852 40.51855469 C66.07933408 42.44212817 69.27715247 44.6977269 72.51953125 47.41015625 C73.44765625 47.94640625 74.37578125 48.48265625 75.33203125 49.03515625 C76.05390625 49.48890625 76.77578125 49.94265625 77.51953125 50.41015625 C77.51953125 51.07015625 77.51953125 51.73015625 77.51953125 52.41015625 C78.07640625 52.47203125 78.63328125 52.53390625 79.20703125 52.59765625 C82.46524691 53.74243473 84.26230093 55.90809407 86.51953125 58.41015625 C87.13054687 59.06371094 87.7415625 59.71726562 88.37109375 60.390625 C106.84849652 80.54454887 116.8184677 105.43453325 115.8671875 132.8515625 C114.98375706 147.11627259 112.01399795 160.66368295 105.51953125 173.41015625 C104.76542969 174.94542969 104.76542969 174.94542969 103.99609375 176.51171875 C102.72810935 179.00072516 101.41295294 181.40273894 99.95703125 183.78515625 C99.54324219 184.47351563 99.12945312 185.161875 98.703125 185.87109375 C98.31253906 186.37898437 97.92195313 186.886875 97.51953125 187.41015625 C96.85953125 187.41015625 96.19953125 187.41015625 95.51953125 187.41015625 C95.17921875 188.49296875 95.17921875 188.49296875 94.83203125 189.59765625 C93.2462125 192.99583928 91.25829801 194.86246624 88.51953125 197.41015625 C87.7615625 198.18101562 87.00359375 198.951875 86.22265625 199.74609375 C83.44269182 202.48588528 80.56792678 205.02193144 77.58203125 207.53515625 C76.08349609 208.80746094 76.08349609 208.80746094 74.5546875 210.10546875 C67.56868379 215.41015625 67.56868379 215.41015625 63.51953125 215.41015625 C63.51953125 216.07015625 63.51953125 216.73015625 63.51953125 217.41015625 C61.52746443 218.34393757 59.52514545 219.25583913 57.51953125 220.16015625 C56.40578125 220.670625 55.29203125 221.18109375 54.14453125 221.70703125 C42.041065 226.49178831 30.12440483 228.14037755 17.20703125 227.97265625 C16.4909671 227.96806396 15.77490295 227.96347168 15.03713989 227.95874023 C-3.50598276 227.79581216 -18.40730293 223.55837534 -34.48046875 214.41015625 C-35.32867187 213.92804688 -36.176875 213.4459375 -37.05078125 212.94921875 C-43.91176918 208.69491441 -49.67074859 202.96690061 -55.48046875 197.41015625 C-56.09148437 196.84683594 -56.7025 196.28351563 -57.33203125 195.703125 C-58.48046875 194.41015625 -58.48046875 194.41015625 -58.48046875 192.41015625 C-59.14046875 192.41015625 -59.80046875 192.41015625 -60.48046875 192.41015625 C-61.87759149 190.45418441 -63.19974504 188.44424685 -64.48046875 186.41015625 C-65.22296875 185.33765625 -65.96546875 184.26515625 -66.73046875 183.16015625 C-68.48046875 180.41015625 -68.48046875 180.41015625 -68.48046875 178.41015625 C-69.02832031 178.384375 -69.57617188 178.35859375 -70.140625 178.33203125 C-94.27290436 176.60549419 -114.67930165 165.18739006 -131.48046875 148.41015625 C-132.68316406 147.22486328 -132.68316406 147.22486328 -133.91015625 146.015625 C-152.07652959 127.06350886 -159.19650658 102.34203108 -159.01879883 76.59594727 C-158.5111884 58.3769522 -153.66372051 40.68503389 -143.48046875 25.41015625 C-142.82046875 25.41015625 -142.16046875 25.41015625 -141.48046875 25.41015625 C-141.38636719 24.848125 -141.29226562 24.28609375 -141.1953125 23.70703125 C-140.30452785 20.84483794 -138.89174993 19.01245164 -137.04296875 16.66015625 C-136.42550781 15.8609375 -135.80804688 15.06171875 -135.171875 14.23828125 C-134.61371094 13.635 -134.05554688 13.03171875 -133.48046875 12.41015625 C-132.82046875 12.41015625 -132.16046875 12.41015625 -131.48046875 12.41015625 C-130.82046875 11.09015625 -130.16046875 9.77015625 -129.48046875 8.41015625 C-128.82046875 8.41015625 -128.16046875 8.41015625 -127.48046875 8.41015625 C-127.15046875 7.42015625 -126.82046875 6.43015625 -126.48046875 5.41015625 C-124.20422702 3.51279863 -121.9443912 1.75960352 -119.54296875 0.03515625 C-118.86218262 -0.45799072 -118.18139648 -0.9511377 -117.47998047 -1.45922852 C-112.37375516 -5.09368786 -107.22701283 -8.07384371 -101.48046875 -10.58984375 C-100.81660156 -10.93273437 -100.15273437 -11.275625 -99.46875 -11.62890625 C-68.24816095 -27.20946688 -27.37522169 -19.72694851 0 0 Z M-100.48046875 22.41015625 C-100.48046875 23.07015625 -100.48046875 23.73015625 -100.48046875 24.41015625 C-102.13046875 25.07015625 -103.78046875 25.73015625 -105.48046875 26.41015625 C-105.48046875 27.07015625 -105.48046875 27.73015625 -105.48046875 28.41015625 C-106.02960938 28.60996094 -106.57875 28.80976562 -107.14453125 29.015625 C-117.44657051 35.16583907 -124.18917029 49.88035483 -127.50390625 60.7734375 C-131.74056307 77.93384104 -130.39893752 96.8025089 -121.68359375 112.421875 C-121.2865625 113.07800781 -120.88953125 113.73414063 -120.48046875 114.41015625 C-119.90296875 115.40015625 -119.32546875 116.39015625 -118.73046875 117.41015625 C-108.93750979 130.46743487 -97.49693133 140.05625167 -82.48046875 146.41015625 C-81.82046875 146.41015625 -81.16046875 146.41015625 -80.48046875 146.41015625 C-80.58875 145.28480469 -80.58875 145.28480469 -80.69921875 144.13671875 C-80.79203125 143.11320313 -80.88484375 142.0896875 -80.98046875 141.03515625 C-81.07328125 140.03742188 -81.16609375 139.0396875 -81.26171875 138.01171875 C-82.6241014 115.58106157 -78.00399717 94.23143603 -65.48046875 75.41015625 C-64.99449219 74.57484375 -64.50851563 73.73953125 -64.0078125 72.87890625 C-62.18123874 69.92649036 -60.01786704 67.51810426 -57.6875 64.9609375 C-56.27573015 63.47463659 -56.27573015 63.47463659 -56.48046875 61.41015625 C-55.16046875 60.75015625 -53.84046875 60.09015625 -52.48046875 59.41015625 C-52.48046875 58.75015625 -52.48046875 58.09015625 -52.48046875 57.41015625 C-51.91328125 57.15621094 -51.34609375 56.90226562 -50.76171875 56.640625 C-48.19703695 55.2572778 -46.20213857 53.60737281 -43.98046875 51.72265625 C-33.831783 43.50847072 -21.58117255 36.22647802 -8.48046875 34.41015625 C-12.16437187 25.93162546 -22.41555205 19.64784786 -30.6015625 16.03125 C-55.2641304 6.65331555 -77.70254246 9.13856581 -100.48046875 22.41015625 Z M-29.48046875 76.41015625 C-31.17846629 78.15123195 -32.72839849 79.91795902 -34.2265625 81.83203125 C-35.48046875 83.41015625 -35.48046875 83.41015625 -36.92578125 84.79296875 C-48.41599887 96.74510467 -52.68173944 113.23197607 -52.66796875 129.28515625 C-52.66861328 130.06874512 -52.66925781 130.85233398 -52.66992188 131.65966797 C-52.61750648 137.41702235 -52.04602453 142.84684196 -50.48046875 148.41015625 C-33.8398663 147.4117201 -18.80989225 138.26800435 -7.48046875 126.41015625 C4.02939146 112.54411089 9.82215878 97.54301144 9.95703125 79.53515625 C9.96710205 78.66785889 9.97717285 77.80056152 9.98754883 76.90698242 C9.90701094 70.93746873 8.72105377 65.95044492 6.51953125 60.41015625 C-6.39638756 60.41015625 -19.80851053 68.46225475 -29.48046875 76.41015625 Z M37.51953125 62.41015625 C37.53000488 63.14951416 37.54047852 63.88887207 37.55126953 64.65063477 C37.82955226 87.29192883 37.90077044 108.58682449 25.51953125 128.41015625 C24.88660156 129.48523438 24.25367188 130.5603125 23.6015625 131.66796875 C20.32965843 137.1669801 17.21144376 141.98526315 12.51953125 146.41015625 C11.71515625 147.23515625 10.91078125 148.06015625 10.08203125 148.91015625 C8.16547595 150.7799663 6.28716243 152.43257472 4.20703125 154.09765625 C3.32015625 154.86078125 2.43328125 155.62390625 1.51953125 156.41015625 C1.51953125 157.07015625 1.51953125 157.73015625 1.51953125 158.41015625 C0.82472656 158.65894531 0.12992188 158.90773438 -0.5859375 159.1640625 C-3.90220129 160.59171182 -6.75684728 162.39508472 -9.79296875 164.34765625 C-13.90091745 166.93463306 -17.86454297 169.24168913 -22.4921875 170.7578125 C-25.03644002 171.59256726 -27.49819455 172.59433144 -29.98046875 173.59765625 C-30.83640625 173.94183594 -31.69234375 174.28601563 -32.57421875 174.640625 C-33.20328125 174.89457031 -33.83234375 175.14851563 -34.48046875 175.41015625 C-31.44921022 180.00034774 -29.37613867 182.79154211 -24.48046875 185.41015625 C-23.201487 186.39971325 -21.93143483 187.40086401 -20.66796875 188.41015625 C-16.80848713 191.34656035 -13.07799453 192.97670715 -8.48046875 194.41015625 C-7.10375 194.89355469 -7.10375 194.89355469 -5.69921875 195.38671875 C-2.19182994 196.50193218 1.28868634 197.29911781 4.89453125 198.03515625 C6.13976562 198.29554688 7.385 198.5559375 8.66796875 198.82421875 C16.42053151 200.00361471 23.10016784 199.15760214 30.70703125 197.59765625 C32.0209082 197.34918945 32.0209082 197.34918945 33.36132812 197.09570312 C38.01609926 196.16051408 41.53919426 195.10377684 45.51953125 192.41015625 C47.18566787 191.74216599 48.85231675 191.0754517 50.51953125 190.41015625 C66.25526135 181.28512784 79.24301367 165.98553834 84.48828125 148.3671875 C89.18063146 129.06419474 86.28086994 109.31966657 76.12280273 92.51318359 C73.02727104 87.59274683 69.74196132 83.40756653 65.51953125 79.41015625 C64.80152344 78.72953125 64.08351563 78.04890625 63.34375 77.34765625 C56.89967465 71.50439963 50.99665979 67.19041943 42.76171875 64.26953125 C41.28614502 63.74311035 41.28614502 63.74311035 39.78076172 63.20605469 C39.03455566 62.9434082 38.28834961 62.68076172 37.51953125 62.41015625 Z " fill="#B5E3FA" transform="translate(158.48046875,18.58984375)"/>
<path d="M0 0 C0.50144531 0.46535156 1.00289062 0.93070313 1.51953125 1.41015625 C1.51953125 2.07015625 1.51953125 2.73015625 1.51953125 3.41015625 C3.16953125 4.07015625 4.81953125 4.73015625 6.51953125 5.41015625 C6.51953125 6.07015625 6.51953125 6.73015625 6.51953125 7.41015625 C7.40511719 7.79300781 7.40511719 7.79300781 8.30859375 8.18359375 C12.23793174 10.36347384 14.70175629 13.97714659 17.51953125 17.41015625 C18.02742187 17.98507813 18.5353125 18.56 19.05859375 19.15234375 C35.44964289 38.87419432 40.1930873 68.71886619 38.24609375 93.453125 C36.85203223 105.93392108 33.27532068 117.76676421 26.51953125 128.41015625 C25.77059704 129.62876106 25.02192211 130.84752524 24.2734375 132.06640625 C23.46132182 133.36954207 22.64751188 134.67162351 21.83203125 135.97265625 C21.43918945 136.6056665 21.04634766 137.23867676 20.64160156 137.89086914 C19.65527419 139.43343928 18.59330377 140.92712661 17.51953125 142.41015625 C16.85953125 142.41015625 16.19953125 142.41015625 15.51953125 142.41015625 C15.27203125 142.96703125 15.02453125 143.52390625 14.76953125 144.09765625 C11.96540151 149.28529626 8.15309558 152.88461817 3.51953125 156.41015625 C2.85953125 156.41015625 2.19953125 156.41015625 1.51953125 156.41015625 C1.51953125 157.07015625 1.51953125 157.73015625 1.51953125 158.41015625 C-0.00585938 159.59936523 -0.00585938 159.59936523 -2.13671875 160.90625 C-2.91273438 161.38255859 -3.68875 161.85886719 -4.48828125 162.34960938 C-5.72191406 163.09114258 -5.72191406 163.09114258 -6.98046875 163.84765625 C-7.77195313 164.33814453 -8.5634375 164.82863281 -9.37890625 165.33398438 C-14.29830572 168.32191471 -19.03364462 170.55432904 -24.48046875 172.41015625 C-25.3415625 172.735 -26.20265625 173.05984375 -27.08984375 173.39453125 C-27.79625 173.6471875 -28.50265625 173.89984375 -29.23046875 174.16015625 C-29.9471875 174.423125 -30.66390625 174.68609375 -31.40234375 174.95703125 C-33.86742748 175.49453071 -35.14781217 175.35943776 -37.48046875 174.41015625 C-41.90759718 170.29162122 -44.63740873 164.4861689 -47.35546875 159.16015625 C-47.82110229 158.25680542 -47.82110229 158.25680542 -48.29614258 157.33520508 C-49.93005044 154.01983567 -50.48046875 152.19779103 -50.48046875 148.41015625 C-49.03027344 148.06404297 -49.03027344 148.06404297 -47.55078125 147.7109375 C-36.15207101 144.89685797 -27.12585959 140.88989909 -17.609375 133.86328125 C-15.48046875 132.41015625 -15.48046875 132.41015625 -12.48046875 131.41015625 C-12.15046875 130.42015625 -11.82046875 129.43015625 -11.48046875 128.41015625 C-9.81380208 126.74348958 -8.14713542 125.07682292 -6.48046875 123.41015625 C6.27652338 108.40980855 9.59255271 91.0474852 8.74511719 71.85644531 C8.44771264 68.63134401 7.78654341 65.56836742 7.00537109 62.42919922 C6.51953125 60.41015625 6.51953125 60.41015625 6.09765625 57.28515625 C5.36514948 53.64241987 3.94127398 50.72456792 2.26953125 47.41015625 C1.686875 46.23453125 1.10421875 45.05890625 0.50390625 43.84765625 C-4.04197092 35.97290839 -10.40341626 30.90494091 -17.48046875 25.41015625 C-18.28742188 24.76433594 -19.094375 24.11851563 -19.92578125 23.453125 C-32.65841976 13.80909682 -51.29995634 8.97625801 -67.203125 10.84375 C-77.77577368 12.6709658 -86.76203831 15.62913179 -95.96875 21.01953125 C-98.48046875 22.41015625 -98.48046875 22.41015625 -100.48046875 22.41015625 C-100.48046875 23.07015625 -100.48046875 23.73015625 -100.48046875 24.41015625 C-102.13046875 25.07015625 -103.78046875 25.73015625 -105.48046875 26.41015625 C-105.48046875 27.07015625 -105.48046875 27.73015625 -105.48046875 28.41015625 C-107.64175518 30.63693621 -109.84992741 32.8056324 -112.08984375 34.953125 C-123.95131675 47.27708662 -129.0136188 64.42035992 -128.9050293 81.22509766 C-128.48563662 92.85868577 -125.52172591 104.42639036 -119.48046875 114.41015625 C-118.90296875 115.40015625 -118.32546875 116.39015625 -117.73046875 117.41015625 C-110.9495555 126.45137392 -103.01188304 135.85559693 -92.3125 140.16796875 C-79.98326584 145.31163401 -79.98326584 145.31163401 -76.9375 152.44140625 C-75.35744358 156.92454778 -74.18859793 161.48070962 -73.11035156 166.10693359 C-72.2950904 169.08800871 -70.88630469 171.66836511 -69.48046875 174.41015625 C-69.48046875 175.73015625 -69.48046875 177.05015625 -69.48046875 178.41015625 C-93.87271487 176.69841968 -114.47922152 165.38718518 -131.48046875 148.41015625 C-132.68316406 147.22486328 -132.68316406 147.22486328 -133.91015625 146.015625 C-152.07652959 127.06350886 -159.19650658 102.34203108 -159.01879883 76.59594727 C-158.5111884 58.3769522 -153.66372051 40.68503389 -143.48046875 25.41015625 C-142.82046875 25.41015625 -142.16046875 25.41015625 -141.48046875 25.41015625 C-141.38636719 24.848125 -141.29226562 24.28609375 -141.1953125 23.70703125 C-140.30452785 20.84483794 -138.89174993 19.01245164 -137.04296875 16.66015625 C-136.42550781 15.8609375 -135.80804688 15.06171875 -135.171875 14.23828125 C-134.61371094 13.635 -134.05554688 13.03171875 -133.48046875 12.41015625 C-132.82046875 12.41015625 -132.16046875 12.41015625 -131.48046875 12.41015625 C-130.82046875 11.09015625 -130.16046875 9.77015625 -129.48046875 8.41015625 C-128.82046875 8.41015625 -128.16046875 8.41015625 -127.48046875 8.41015625 C-127.15046875 7.42015625 -126.82046875 6.43015625 -126.48046875 5.41015625 C-124.20422702 3.51279863 -121.9443912 1.75960352 -119.54296875 0.03515625 C-118.86218262 -0.45799072 -118.18139648 -0.9511377 -117.47998047 -1.45922852 C-112.37375516 -5.09368786 -107.22701283 -8.07384371 -101.48046875 -10.58984375 C-100.81660156 -10.93273437 -100.15273437 -11.275625 -99.46875 -11.62890625 C-68.24816095 -27.20946688 -27.37522169 -19.72694851 0 0 Z " fill="#2CA3DC" transform="translate(158.48046875,18.58984375)"/>
<path d="M0 0 C1.15991455 -0.00290039 1.15991455 -0.00290039 2.34326172 -0.00585938 C10.25944556 0.20892711 16.45769624 2.82582144 23.375 6.5625 C23.375 7.2225 23.375 7.8825 23.375 8.5625 C23.95378906 8.81128906 24.53257812 9.06007813 25.12890625 9.31640625 C34.03056004 14.25488896 38.3056891 24.35456729 41.375 33.5625 C42.65334964 49.05480311 42.40098521 62.59751917 33 75.5 C26.65943618 82.97720917 19.33842562 89.10545308 9.375 90.5625 C-2.67415478 91.33433738 -12.11428977 90.86892614 -22.625 84.5625 C-22.955 98.4225 -23.285 112.2825 -23.625 126.5625 C-31.545 126.5625 -39.465 126.5625 -47.625 126.5625 C-47.625 85.6425 -47.625 44.7225 -47.625 2.5625 C-40.365 2.5625 -33.105 2.5625 -25.625 2.5625 C-25.295 4.5425 -24.965 6.5225 -24.625 8.5625 C-24.1403125 8.23636719 -23.655625 7.91023438 -23.15625 7.57421875 C-22.4859375 7.13722656 -21.815625 6.70023437 -21.125 6.25 C-20.4753125 5.82074219 -19.825625 5.39148438 -19.15625 4.94921875 C-12.8808823 1.51132441 -7.15235596 -0.01879314 0 0 Z M-19 29.875 C-23.01305211 36.51197079 -24.72158178 42.77797443 -23.625 50.5625 C-21.52147729 57.35849643 -18.28010751 63.2431306 -12 66.875 C-7.25193606 69.05414875 -2.76289819 69.27921521 2.375 68.5625 C5.69309757 67.44578093 5.69309757 67.44578093 8.375 65.5625 C9.220625 65.0675 10.06625 64.5725 10.9375 64.0625 C15.79866694 59.07668775 18.61488418 52.46509468 19 45.5 C18.64179115 39.25124557 16.10581512 33.55066942 11.8828125 28.9296875 C10.19000581 27.41624172 10.19000581 27.41624172 7.375 25.5625 C6.6325 24.964375 5.89 24.36625 5.125 23.75 C-3.91711934 19.84544847 -12.29619439 23.34761032 -19 29.875 Z " fill="#2CA3DC" transform="translate(367.625,98.4375)"/>
<path d="M0 0 C1.51726685 0.0146228 1.51726685 0.0146228 3.06518555 0.02954102 C14.86329236 0.30974724 22.60449264 2.76741089 31.46875 10.73046875 C37.38163755 18.15371344 38.21538814 25.40319 38.19921875 34.671875 C38.21338333 35.82689514 38.22754791 36.98191528 38.24214172 38.17193604 C38.28382548 41.84388599 38.29922309 45.51534766 38.3125 49.1875 C38.34176305 52.8451398 38.37657075 56.50266266 38.41499329 60.16021729 C38.43709114 62.42753804 38.45314219 64.69492954 38.46183777 66.96234131 C38.51226577 74.49730292 38.98109741 81.92926788 39.625 89.4375 C32.365 89.4375 25.105 89.4375 17.625 89.4375 C16.965 87.7875 16.305 86.1375 15.625 84.4375 C15.03332031 84.78683594 14.44164062 85.13617188 13.83203125 85.49609375 C13.04183594 85.95113281 12.25164062 86.40617187 11.4375 86.875 C10.66019531 87.32746094 9.88289063 87.77992188 9.08203125 88.24609375 C3.43703525 90.98333347 -2.55222306 90.62071858 -8.6875 90.625 C-9.59951172 90.63724609 -10.51152344 90.64949219 -11.45117188 90.66210938 C-21.4448992 90.68360126 -29.28199266 88.52466731 -37.375 82.4375 C-42.85676007 76.751292 -44.66153898 70.33157301 -44.6875 62.5 C-44.52985179 54.60099516 -43.56668281 50.28402948 -37.75 44.6875 C-33.52946262 41.26213633 -29.62205292 39.68229634 -24.375 38.4375 C-22.77785156 38.03917969 -22.77785156 38.03917969 -21.1484375 37.6328125 C-15.28210564 36.26703679 -9.6433487 35.3051757 -3.625 35 C2.05340847 34.64509947 7.91270648 33.8609611 12.625 30.4375 C13.45537072 27.87332684 13.45537072 27.87332684 13.625 25.4375 C7.46533965 20.55225214 1.2525351 20.78911449 -6.375 21.4375 C-10.89992349 22.72434068 -13.60361691 24.37684825 -16.375 28.1875 C-16.705 28.93 -17.035 29.6725 -17.375 30.4375 C-22.64270198 29.77990251 -27.67633173 28.70485876 -32.8125 27.375 C-33.54404297 27.18873047 -34.27558594 27.00246094 -35.02929688 26.81054688 C-36.81203198 26.3561242 -38.59363787 25.89727534 -40.375 25.4375 C-38.50653349 17.31752872 -34.2566828 11.28615462 -27.25 6.8125 C-26.38117188 6.24273437 -25.51234375 5.67296875 -24.6171875 5.0859375 C-16.59100709 1.00515661 -8.93272844 -0.09613097 0 0 Z M9.4375 50.8125 C4.9658586 52.2078598 0.65298771 52.85903433 -4 53.375 C-10.00691444 54.12282437 -14.42966531 54.87685902 -19.375 58.4375 C-20.77473055 61.41106417 -20.77473055 61.41106417 -20.375 64.4375 C-18.59370405 67.06256772 -16.27821118 68.2626219 -13.375 69.4375 C-3.91092847 70.38500891 4.49526616 70.0746509 12.27734375 64.1875 C14.54853926 61.9729271 15.56592935 59.95669993 15.921875 56.828125 C15.93592074 54.34202956 15.84515147 51.91298096 15.625 49.4375 C13.27816997 49.4375 11.66403606 50.05913269 9.4375 50.8125 Z " fill="#2CA3DC" transform="translate(459.375,98.5625)"/>
<path d="M0 0 C0.83329834 -0.00314209 1.66659668 -0.00628418 2.52514648 -0.00952148 C10.14129795 0.1363088 16.10367913 2.00370204 22.9375 5.4375 C23.9275 5.9325 23.9275 5.9325 24.9375 6.4375 C24.9375 7.0975 24.9375 7.7575 24.9375 8.4375 C25.50597656 8.51355469 26.07445312 8.58960937 26.66015625 8.66796875 C32.52218948 10.64879301 36.78369791 17.29278553 39.59765625 22.5234375 C44.26587537 33.32975232 43.9375 42.27005046 43.9375 54.4375 C22.8175 54.4375 1.6975 54.4375 -20.0625 54.4375 C-18.4125 57.0775 -16.7625 59.7175 -15.0625 62.4375 C-15.0625 63.0975 -15.0625 63.7575 -15.0625 64.4375 C-14.32 64.72625 -13.5775 65.015 -12.8125 65.3125 C-10.0625 66.4375 -10.0625 66.4375 -8.25 67.48046875 C-3.77417532 69.43864205 1.17388372 69.05804771 5.9375 68.4375 C9.35356743 66.96969978 12.30292743 65.07207257 14.9375 62.4375 C20.72539964 62.78054071 24.56190603 64.55102497 29.375 67.5 C30.01115234 67.87705078 30.64730469 68.25410156 31.30273438 68.64257812 C32.85382902 69.56390502 34.39657343 70.49926593 35.9375 71.4375 C35.9375 76.11584007 35.1157099 77.1684841 31.9375 80.4375 C30.9475 80.4375 29.9575 80.4375 28.9375 80.4375 C28.70546875 81.04207031 28.4734375 81.64664063 28.234375 82.26953125 C26.58926194 85.01964494 25.05749728 85.74653161 22.1875 87.125 C21.34703125 87.54136719 20.5065625 87.95773438 19.640625 88.38671875 C13.59255121 90.73777634 7.45926091 90.62024758 1.0625 90.625 C0.20269531 90.63724609 -0.65710938 90.64949219 -1.54296875 90.66210938 C-14.9047757 90.6925232 -24.59967004 85.68428361 -34.0625 76.4375 C-42.99378101 67.25103953 -44.31740371 55.41547789 -44.3112793 43.26586914 C-44.17031788 33.28600373 -41.23769201 25.90599602 -36.0625 17.4375 C-35.4025 17.4375 -34.7425 17.4375 -34.0625 17.4375 C-33.794375 16.798125 -33.52625 16.15875 -33.25 15.5 C-32.0625 13.4375 -32.0625 13.4375 -29.0625 12.4375 C-28.65257812 11.51324219 -28.65257812 11.51324219 -28.234375 10.5703125 C-26.55551259 7.51478292 -24.42738424 6.79245744 -21.3125 5.3125 C-19.77335938 4.56613281 -19.77335938 4.56613281 -18.203125 3.8046875 C-11.93386843 1.07553352 -6.78509196 0.0210696 0 0 Z M-17.5 30.0625 C-19.33730825 32.38139332 -19.33730825 32.38139332 -19.0625 35.4375 C-6.1925 35.4375 6.6775 35.4375 19.9375 35.4375 C18.08828999 30.81447499 17.49251446 29.64129878 13.9375 26.6875 C13.23625 26.09453125 12.535 25.5015625 11.8125 24.890625 C2.54592998 17.70903324 -10.55188377 22.57991329 -17.5 30.0625 Z " fill="#2CA3DC" transform="translate(637.0625,98.5625)"/>
<path d="M0 0 C8.25 0 16.5 0 25 0 C26.67196224 4.45856598 28.29883461 8.80156607 29.75 13.3125 C31.55649635 18.80173794 33.54340742 24.21159781 35.5625 29.625 C37.66519837 35.26856309 39.71554687 40.88219025 41.296875 46.69921875 C42.36557786 50.196252 43.69775188 53.58338749 45 57 C46.37122913 52.91131397 47.74035632 48.82193152 49.10766602 44.73193359 C49.57162828 43.34502873 50.0361322 41.95830493 50.5012207 40.57177734 C52.88302072 33.46996244 55.23459074 26.36823931 57.34936523 19.18115234 C58.36894308 15.76317543 59.49087515 12.38137223 60.625 9 C60.8415625 8.34644531 61.058125 7.69289063 61.28125 7.01953125 C62.87310753 2.25378494 62.87310753 2.25378494 64 0 C72.25 0 80.5 0 89 0 C87.70499624 6.47501879 86.72842911 11.14313436 84.26953125 16.97265625 C82.60839155 20.93383553 81.05496667 24.9336787 79.5 28.9375 C79.21552002 29.66453125 78.93104004 30.3915625 78.63793945 31.140625 C76.33188745 37.0605214 74.15599467 43.02405448 72 49 C71.35707252 50.7748489 70.71384669 52.54958975 70.0703125 54.32421875 C69.75312256 55.19908936 69.43593262 56.07395996 69.10913086 56.9753418 C66.188197 65.02511959 63.25590775 73.06936978 60.22143555 81.07714844 C58.8624782 84.66976257 57.53958589 88.27246371 56.25 91.890625 C47.0156612 117.71284953 47.0156612 117.71284953 35.6953125 124.3515625 C27.99993537 127.95310264 20.42069309 128.48774032 12 128 C11 127 11 127 10.88647461 124.86694336 C10.89171143 123.95050049 10.89694824 123.03405762 10.90234375 122.08984375 C10.90556641 121.10048828 10.90878906 120.11113281 10.91210938 119.09179688 C10.92048828 118.05087891 10.92886719 117.00996094 10.9375 115.9375 C10.94201172 114.89271484 10.94652344 113.84792969 10.95117188 112.77148438 C10.96300087 110.1809334 10.97948311 107.59049441 11 105 C11.89203125 104.82984375 12.7840625 104.6596875 13.703125 104.484375 C14.87359375 104.24203125 16.0440625 103.9996875 17.25 103.75 C18.41015625 103.51796875 19.5703125 103.2859375 20.765625 103.046875 C25.19802137 101.61223463 26.98388275 99.56180984 29.4765625 95.73046875 C31.53349231 91.17583845 32.32550514 88.26301376 31.0546875 83.33203125 C29.80939624 80.06392761 28.33675761 76.90889317 26.82080078 73.75878906 C25.69710091 71.35095626 24.8112609 68.88294971 23.9375 66.375 C22.57441042 62.54854549 21.1495124 58.75065877 19.6875 54.9609375 C19.24720459 53.81898926 18.80690918 52.67704102 18.35327148 51.50048828 C17.08240344 48.21315181 15.80922671 44.92672141 14.53515625 41.640625 C6.87256178 21.85816966 6.87256178 21.85816966 3.4375 12.1875 C3.19845947 11.51944336 2.95941895 10.85138672 2.71313477 10.16308594 C1.51956729 6.75289315 0.71413575 3.57067875 0 0 Z " fill="#2CA3DC" transform="translate(503,101)"/>
<path d="M0 0 C9.24 0 18.48 0 28 0 C29.98 3.63 31.96 7.26 34 11 C35.97140567 14.0329318 37.9447307 17.02852631 40 20 C40.66 20.99 41.32 21.98 42 23 C45.95942048 17.31359825 49.45847128 11.50578808 52.703125 5.3828125 C54 3 54 3 56 0 C58.70556641 -0.34057617 58.70556641 -0.34057617 62.1015625 -0.29296875 C63.31328125 -0.28330078 64.525 -0.27363281 65.7734375 -0.26367188 C67.04445313 -0.23853516 68.31546875 -0.21339844 69.625 -0.1875 C70.90375 -0.17396484 72.1825 -0.16042969 73.5 -0.14648438 C76.66708282 -0.11103196 79.83333541 -0.06161441 83 0 C81.62502568 4.35720744 80.16367786 7.49194159 77.375 11.125 C73.01420222 16.93675413 68.99434345 22.93296152 65 29 C64.3090625 30.02738281 63.618125 31.05476563 62.90625 32.11328125 C61.43680465 34.33852739 60.05156399 36.55077859 58.75 38.875 C57.88375 40.421875 57.88375 40.421875 57 42 C57.39832031 42.59167969 57.79664063 43.18335938 58.20703125 43.79296875 C58.73683594 44.58316406 59.26664063 45.37335938 59.8125 46.1875 C60.59560547 47.35345703 60.59560547 47.35345703 61.39453125 48.54296875 C62.99574118 50.99348224 64.49518623 53.48941785 66 56 C67.84968012 58.86363753 69.70913002 61.72059438 71.57421875 64.57421875 C73 67 73 67 73 69 C73.66 69 74.32 69 75 69 C76.61815634 71.22088246 78.10415176 73.42770138 79.5625 75.75 C79.97435547 76.38421875 80.38621094 77.0184375 80.81054688 77.671875 C82.77296745 80.75521993 84.24898718 83.42914658 85 87 C80.56284145 87.14483042 76.12628723 87.23391752 71.6875 87.3125 C70.42486328 87.35439453 69.16222656 87.39628906 67.86132812 87.43945312 C66.65283203 87.45556641 65.44433594 87.47167969 64.19921875 87.48828125 C63.08377686 87.51446533 61.96833496 87.54064941 60.8190918 87.56762695 C58 87 58 87 56.21289062 84.63012695 C55.81263672 83.76218506 55.41238281 82.89424316 55 82 C54.47019531 81.15179688 53.94039062 80.30359375 53.39453125 79.4296875 C52.87246094 78.58664063 52.35039063 77.74359375 51.8125 76.875 C51.28269531 76.02679688 50.75289062 75.17859375 50.20703125 74.3046875 C49 72 49 72 49 69 C48.34 69 47.68 69 47 69 C43 62.25 43 62.25 43 60 C42.34 60 41.68 60 41 60 C40.72671875 60.73992187 40.4534375 61.47984375 40.171875 62.2421875 C39.07394342 64.82598648 37.8646468 66.84192415 36.25 69.125 C33.25591137 73.49137925 30.7497574 78.02667335 28.296875 82.71484375 C27 85 27 85 25 87 C22.29443359 87.22705078 22.29443359 87.22705078 18.8984375 87.1953125 C17.68671875 87.18886719 16.475 87.18242187 15.2265625 87.17578125 C13.95554687 87.15902344 12.68453125 87.14226562 11.375 87.125 C9.456875 87.11146484 9.456875 87.11146484 7.5 87.09765625 C4.33314833 87.07402303 1.16666576 87.04107629 -2 87 C-0.50203439 83.00542504 1.28224144 80.2942528 4 77 C5.02611949 75.34928604 6.02308143 73.68029994 7 72 C7.84521245 70.55721697 8.69997376 69.11999972 9.5625 67.6875 C9.97628906 66.99011719 10.39007812 66.29273438 10.81640625 65.57421875 C11.20699219 65.05472656 11.59757813 64.53523438 12 64 C12.66 64 13.32 64 14 64 C14.11859375 63.41210693 14.2371875 62.82421387 14.359375 62.21850586 C15.02583994 59.91051542 15.86901404 58.45547758 17.25 56.50390625 C17.6934375 55.86259766 18.136875 55.22128906 18.59375 54.56054688 C19.52941235 53.23112662 20.46690693 51.90299396 21.40625 50.57617188 C24.90956993 45.72410052 24.90956993 45.72410052 26 40 C24.48439834 37.1759249 24.48439834 37.1759249 22.25 34.5 C19.58576495 31.08824576 17.1688107 27.7466648 15 24 C10.79519261 17.16585736 6.34421111 10.61653728 1.50390625 4.21484375 C0 2 0 2 0 0 Z " fill="#2CA3DC" transform="translate(683,101)"/>
</svg>
