<svg width="27" height="22" viewBox="0 0 27 22" fill="none" xmlns="http://www.w3.org/2000/svg">
<path fill-rule="evenodd" clip-rule="evenodd" d="M14.6245 0C14.9501 4.40287e-05 15.2644 0.122581 15.5078 0.344368C15.7511 0.566155 15.9066 0.871768 15.9447 1.20324L15.954 1.36267C15.9544 1.70999 16.0841 2.04405 16.3168 2.29661C16.5494 2.54916 16.8673 2.70114 17.2056 2.72149C17.5439 2.74185 17.877 2.62904 18.1368 2.40612C18.3967 2.1832 18.5637 1.86699 18.6037 1.52211L18.613 1.36267C18.613 1.00127 18.7531 0.654669 19.0024 0.399118C19.2517 0.143567 19.5899 0 19.9425 0H22.6015C23.6593 0 24.6738 0.430701 25.4218 1.19735C26.1698 1.96401 26.59 3.00381 26.59 4.08802V17.7147C26.59 18.799 26.1698 19.8388 25.4218 20.6054C24.6738 21.3721 23.6593 21.8028 22.6015 21.8028H19.9425C19.6169 21.8027 19.3026 21.6802 19.0592 21.4584C18.8159 21.2366 18.6604 20.931 18.6223 20.5995L18.613 20.4401C18.6126 20.0928 18.4829 19.7587 18.2502 19.5062C18.0176 19.2536 17.6997 19.1016 17.3614 19.0813C17.0231 19.0609 16.69 19.1737 16.4302 19.3966C16.1703 19.6196 16.0033 19.9358 15.9633 20.2807L15.954 20.4401C15.954 20.8015 15.8139 21.1481 15.5646 21.4036C15.3153 21.6592 14.9771 21.8028 14.6245 21.8028H3.9885C2.93068 21.8028 1.91619 21.3721 1.1682 20.6054C0.420216 19.8388 0 18.799 0 17.7147V4.08802C0 3.00381 0.420216 1.96401 1.1682 1.19735C1.91619 0.430701 2.93068 0 3.9885 0H14.6245ZM17.2835 12.2641C16.9309 12.2641 16.5927 12.4076 16.3434 12.6632C16.0941 12.9187 15.954 13.2653 15.954 13.6267V14.9894C15.954 15.3508 16.0941 15.6974 16.3434 15.953C16.5927 16.2085 16.9309 16.3521 17.2835 16.3521C17.6361 16.3521 17.9743 16.2085 18.2236 15.953C18.4729 15.6974 18.613 15.3508 18.613 14.9894V13.6267C18.613 13.2653 18.4729 12.9187 18.2236 12.6632C17.9743 12.4076 17.6361 12.2641 17.2835 12.2641ZM17.2835 5.45069C16.9579 5.45074 16.6436 5.57327 16.4002 5.79506C16.1569 6.01685 16.0014 6.32246 15.9633 6.65393L15.954 6.81336V8.17604C15.9544 8.52335 16.0841 8.85742 16.3168 9.10997C16.5494 9.36252 16.8673 9.5145 17.2056 9.53486C17.5439 9.55521 17.877 9.4424 18.1368 9.21948C18.3967 8.99656 18.5637 8.68036 18.6037 8.33547L18.613 8.17604V6.81336C18.613 6.45196 18.4729 6.10536 18.2236 5.84981C17.9743 5.59426 17.6361 5.45069 17.2835 5.45069Z" fill="#F2F1F2"/>
</svg>
