<svg width="22" height="28" viewBox="0 0 22 28" fill="none" xmlns="http://www.w3.org/2000/svg">
<path fill-rule="evenodd" clip-rule="evenodd" d="M17.875 0.00854492C18.969 0.00854492 20.0182 0.44308 20.7918 1.21656C21.5654 1.99004 22 3.0391 22 4.13296V26.1298C21.9998 26.3888 21.9265 26.6424 21.7885 26.8615C21.6506 27.0807 21.4535 27.2563 21.22 27.3684C20.9865 27.4805 20.7262 27.5243 20.4689 27.4949C20.2116 27.4655 19.9678 27.364 19.7656 27.2022L17.1875 25.14L14.6094 27.2022C14.3452 27.4138 14.0124 27.5205 13.6744 27.502C13.3365 27.4835 13.0173 27.341 12.7779 27.1018L11 25.3242L9.22213 27.1018C8.98288 27.3412 8.66375 27.4839 8.32582 27.5027C7.9879 27.5215 7.65491 27.415 7.39062 27.2036L4.8125 25.14L2.23438 27.2022C2.03221 27.364 1.78845 27.4655 1.53115 27.4949C1.27384 27.5243 1.01347 27.4805 0.779995 27.3684C0.546521 27.2563 0.349443 27.0807 0.211451 26.8615C0.0734582 26.6424 0.000161755 26.3888 0 26.1298V4.13296C0 3.0391 0.434597 1.99004 1.20818 1.21656C1.98177 0.44308 3.03098 0.00854492 4.125 0.00854492H17.875ZM11 13.7566H6.875C6.51033 13.7566 6.16059 13.9014 5.90273 14.1593C5.64487 14.4171 5.5 14.7668 5.5 15.1314C5.5 15.496 5.64487 15.8457 5.90273 16.1035C6.16059 16.3614 6.51033 16.5062 6.875 16.5062H11C11.3647 16.5062 11.7144 16.3614 11.9723 16.1035C12.2301 15.8457 12.375 15.496 12.375 15.1314C12.375 14.7668 12.2301 14.4171 11.9723 14.1593C11.7144 13.9014 11.3647 13.7566 11 13.7566ZM15.125 8.25738H6.875C6.52454 8.25776 6.18746 8.39194 5.93262 8.63249C5.67778 8.87304 5.52443 9.2018 5.50389 9.55161C5.48335 9.90142 5.59718 10.2459 5.82211 10.5146C6.04705 10.7833 6.36612 10.956 6.71413 10.9974L6.875 11.007H15.125C15.4755 11.0066 15.8125 10.8724 16.0674 10.6319C16.3222 10.3913 16.4756 10.0626 16.4961 9.71275C16.5167 9.36294 16.4028 9.0185 16.1779 8.74979C15.9529 8.48108 15.6339 8.30839 15.2859 8.267L15.125 8.25738Z" fill="#F2F1F2"/>
</svg>
