<svg width="24" height="28" viewBox="0 0 24 28" fill="none" xmlns="http://www.w3.org/2000/svg">
<path d="M11.5953 0.513306L23.1906 4.59664V14C23.1906 18.8148 20.2535 22.1806 17.5136 24.2701C15.8608 25.5202 14.0469 26.5387 12.1217 27.2976L12.0209 27.3361L11.9919 27.3466L11.9838 27.349L11.9803 27.3501C11.9803 27.3501 11.978 27.3501 11.5953 26.25L11.2115 27.3513L11.2069 27.349L11.1988 27.3466L11.1698 27.335L11.0689 27.2976C10.522 27.0849 9.98428 26.849 9.45714 26.5906C8.12643 25.9402 6.86064 25.1632 5.67706 24.2701C2.93825 22.1806 0 18.8148 0 14V4.59664L11.5953 0.513306ZM11.5953 26.25L11.2115 27.3513L11.5953 27.4866L11.9791 27.3513L11.5953 26.25ZM11.5953 24.9993L11.6057 24.9946C13.2101 24.3274 14.7245 23.4592 16.1128 22.4105C18.5919 20.5216 20.8716 17.7601 20.8716 14V6.25331L11.5953 2.98664L2.31906 6.25331V14C2.31906 17.7601 4.5987 20.5193 7.07778 22.4116C8.46922 23.4623 9.9871 24.3318 11.5953 24.9993ZM18.636 9.73347L10.4369 17.983L5.51705 13.034L7.15779 11.3831L10.4358 14.6836L16.9952 8.08381L18.636 9.73347Z" fill="#F2F1F2"/>
</svg>
